<?xml version="1.0" encoding="UTF-8"?>
<svg xmlns="http://www.w3.org/2000/svg" viewBox="0 0 587.05 262.57">
  <defs>
    <style>
      .cls-1 {
        fill: #fd7050;
      }

      .cls-2 {
        fill: #6cabe0;
      }

      .cls-3 {
        fill: #a6d140;
      }

      .cls-4 {
        fill: #eee016;
      }

      .cls-5 {
        fill: #6bbb90;
      }

      .cls-6 {
        isolation: isolate;
      }

      .cls-7 {
        mix-blend-mode: multiply;
      }

      .cls-8 {
        fill: #e2799e;
      }

      .cls-9 {
        fill: #1c75bc;
      }
    </style>
  </defs>
  <g class="cls-6">
    <g id="Layer_1" data-name="Layer 1">
      <g>
        <g class="cls-7">
          <path class="cls-1" d="M254.06,132.03c0,69.19-56.09,127.43-125.28,127.43S3.5,201.22,3.5,132.03,59.59,4.61,128.78,4.61s125.28,58.24,125.28,127.43Z"/>
        </g>
        <g class="cls-7">
          <path class="cls-8" d="M307.69,132.03c0,69.19-56.09,127.43-125.28,127.43s-125.28-58.24-125.28-127.43S113.23,4.61,182.41,4.61s125.28,58.24,125.28,127.43Z"/>
        </g>
        <g class="cls-7">
          <path class="cls-2" d="M361.33,132.03c0,69.19-56.09,127.43-125.28,127.43s-125.28-58.24-125.28-127.43S166.86,4.61,236.05,4.61s125.28,58.24,125.28,127.43Z"/>
        </g>
        <g class="cls-7">
          <path class="cls-4" d="M332.2,132.03c0,69.19,56.09,127.43,125.28,127.43,69.19,0,125.28-58.24,125.28-127.43,0-69.19-56.09-127.43-125.28-127.43-69.19,0-125.28,58.24-125.28,127.43Z"/>
        </g>
        <g class="cls-7">
          <path class="cls-3" d="M278.56,132.03c0,69.19,56.09,127.43,125.28,127.43,69.19,0,125.28-58.24,125.28-127.43,0-69.19-56.09-127.43-125.28-127.43-69.19,0-125.28,58.24-125.28,127.43Z"/>
        </g>
        <g class="cls-7">
          <path class="cls-5" d="M224.95,129.6c-1.35,69.18,53.6,128.49,122.77,129.84,69.18,1.35,126.39-55.79,127.73-124.96,1.35-69.18-53.6-128.49-122.77-129.84-69.18-1.35-126.39,55.79-127.73,124.96Z"/>
        </g>
        <g class="cls-7">
          <path class="cls-9" d="M414.96,132.03c0,69.19-56.09,127.43-125.28,127.43s-125.28-58.24-125.28-127.43S220.5,4.61,289.68,4.61s125.28,58.24,125.28,127.43Z"/>
        </g>
      </g>
    </g>
  </g>
</svg>